<?xml version="1.0" encoding="UTF-8"?>
<svg width="60px" height="58px" viewBox="0 0 60 58" version="1.1" xmlns="http://www.w3.org/2000/svg" xmlns:xlink="http://www.w3.org/1999/xlink">
    <title>Add Video</title>
    <g id="icons" stroke="none" stroke-width="1" fill="none" fill-rule="evenodd">
        <g id="Artboard" transform="translate(-643.000000, -186.000000)">
            <g id="Add-Video" transform="translate(643.000000, 186.000000)">
                <path d="M18.7291667,54.9791667 C5.60666708,54.9791667 0,49.3724996 0,36.25 L0,21.75 C0,8.62750041 5.60666708,3.02083333 18.7291667,3.02083333 L33.2291667,3.02083333 C46.3516663,3.02083333 51.9583333,8.62750041 51.9583333,21.75 L51.9583333,36.25 C51.9583333,49.3724996 46.3516663,54.9791667 33.2291667,54.9791667 L18.7291667,54.9791667 Z M3.625,21.75 L3.625,36.25 C3.625,47.3908337 7.58833301,51.3541667 18.7291667,51.3541667 L33.2291667,51.3541667 C44.3700003,51.3541667 48.3333333,47.3908337 48.3333333,36.25 L48.3333333,21.75 C48.3333333,10.6091663 44.3700003,6.64583333 33.2291667,6.64583333 L18.7291667,6.64583333 C7.58833301,6.64583333 3.625,10.6091663 3.625,21.75 Z" id="Vector" fill="#D8D8D8"></path>
                <path d="M12.0833333,19.3333333 C12.0833333,15.66 15.0558334,12.6875 18.7291667,12.6875 C22.4025,12.6875 25.375,15.66 25.375,19.3333333 C25.375,23.0066666 22.4025,25.9791667 18.7291667,25.9791667 C15.0558334,25.9791667 12.0833333,23.0066666 12.0833333,19.3333333 Z M15.7083333,19.3333333 C15.7083333,21.0008333 17.0616667,22.3541667 18.7291667,22.3541667 C20.3966667,22.3541667 21.75,21.0008333 21.75,19.3333333 C21.75,17.6658333 20.3966667,16.3125 18.7291667,16.3125 C17.0616667,16.3125 15.7083333,17.6658333 15.7083333,19.3333333 Z" id="Vector" fill="#D8D8D8"></path>
                <path d="M1.93514181,46.8109759 C1.37930846,45.9893093 1.59680854,44.8534737 2.44264186,44.2976404 L14.3568082,36.2984756 C16.9668083,34.5343089 20.5676419,34.751808 22.9359753,36.7576413 L23.7334751,37.4584739 C24.9418085,38.4976406 26.9959755,38.4976406 28.1801422,37.4584739 L38.2334751,28.8309749 C40.7951417,26.6318082 44.8309755,26.6318082 47.4168089,28.8309749 L51.3559736,32.2143076 C52.1051402,32.8668077 52.2018067,34.002642 51.5493067,34.7759753 C50.8968067,35.525142 49.7609747,35.6218085 48.9876413,34.9693085 L45.0484721,31.5859735 C43.8401388,30.5468068 41.7859758,30.5468068 40.5776424,31.5859735 L30.5243095,40.2134724 C27.9626429,42.4126392 23.9268091,42.4126392 21.3409757,40.2134724 L20.5434747,39.5126415 C19.431808,38.5701415 17.5951425,38.473475 16.3626425,39.3193084 L4.44847508,47.3184737 C4.13430843,47.5118071 3.77180881,47.6084758 3.43347547,47.6084758 C2.85347549,47.6084758 2.27347514,47.3184759 1.93514181,46.8109759 Z" id="Vector" fill="#D8D8D8" fill-rule="nonzero"></path>
                <path d="M59.9791667,0 L59.9791667,58 L1.97916667,58 L1.97916667,0 L59.9791667,0 Z" id="Vector" opacity="0.5"></path>
            </g>
        </g>
    </g>
</svg>