<?xml version="1.0" encoding="UTF-8"?>
<svg width="20px" height="20px" viewBox="0 0 20 20" version="1.1" xmlns="http://www.w3.org/2000/svg" xmlns:xlink="http://www.w3.org/1999/xlink">
    <title>vuesax/bold/add</title>
    <g id="icons" stroke="none" stroke-width="1" fill="none" fill-rule="evenodd">
        <g id="Artboard" transform="translate(-329.000000, -133.000000)">
            <g id="add" transform="translate(327.000000, 131.000000)">
                <path d="M7.80999994,2 C4.16999984,2 2,4.16999984 2,7.80999994 L2,16.1800003 C2,19.8300004 4.16999984,22 7.80999994,22 L16.1800003,22 C19.8200004,22 21.9900341,19.8300006 21.9900341,16.1900005 L21.9900341,7.80999994 C22,4.16999984 19.8300006,2 16.1900005,2 L7.80999994,2 Z M12.75,12.75 L12.75,18 C12.75,18.41 12.41,18.75 12,18.75 C11.59,18.75 11.25,18.41 11.25,18 L11.25,12.75 L6,12.75 C5.59,12.75 5.25,12.41 5.25,12 C5.25,11.59 5.59,11.25 6,11.25 L11.25,11.25 L11.25,6 C11.25,5.59 11.59,5.25 12,5.25 C12.41,5.25 12.75,5.59 12.75,6 L12.75,11.25 L18,11.25 C18.41,11.25 18.75,11.59 18.75,12 C18.75,12.41 18.41,12.75 18,12.75 L12.75,12.75 Z" id="Vector" fill="#FFFFFF"></path>
                <path d="M24,0 L24,24 L0,24 L0,0 L24,0 Z" id="Vector" opacity="0" transform="translate(12.000000, 12.000000) rotate(-180.000000) translate(-12.000000, -12.000000) "></path>
            </g>
        </g>
    </g>
</svg>