<?xml version="1.0" encoding="UTF-8"?>
<svg width="17px" height="17px" viewBox="0 0 17 17" version="1.1" xmlns="http://www.w3.org/2000/svg" xmlns:xlink="http://www.w3.org/1999/xlink">
    <title>54761</title>
    <g id="icons" stroke="none" stroke-width="1" fill="none" fill-rule="evenodd">
        <g id="Artboard" transform="translate(-176.000000, -42.000000)" fill="#000000" fill-rule="nonzero">
            <g id="54761" transform="translate(176.000000, 42.000000)">
                <path d="M11.15625,9.03125 L5.84375,9.03125 C5.5505,9.03125 5.3125,9.26925 5.3125,9.5625 C5.3125,9.85575 5.5505,10.09375 5.84375,10.09375 L11.15625,10.09375 C11.4495,10.09375 11.6875,9.85575 11.6875,9.5625 C11.6875,9.26925 11.4495,9.03125 11.15625,9.03125 Z M12.21875,5.84375 L4.78125,5.84375 C4.488,5.84375 4.25,6.08175 4.25,6.375 C4.25,6.66825 4.488,6.90625 4.78125,6.90625 L12.21875,6.90625 C12.512,6.90625 12.75,6.66825 12.75,6.375 C12.75,6.08175 12.512,5.84375 12.21875,5.84375 Z M8.5,0 C3.80588889,0 0,3.32986111 0,7.4375 C0,9.78511111 1.24577778,11.8750278 3.1875,13.2382222 L3.1875,17 L6.91102778,14.7405833 C7.42636111,14.8256111 7.95652778,14.875 8.5,14.875 C13.1946667,14.875 17,11.5451389 17,7.4375 C17,3.32986111 13.1946667,0 8.5,0 Z M8.5,13.8125 C7.8795,13.8125 7.28025,13.74025 6.70436111,13.6175278 L4.20322222,15.1209444 L4.23669444,12.6570278 C2.31944444,11.5036944 1.0625,9.59758333 1.0625,7.4375 C1.0625,3.91691667 4.39236111,1.0625 8.5,1.0625 C12.6076389,1.0625 15.9375,3.91691667 15.9375,7.4375 C15.9375,10.9580833 12.6076389,13.8125 8.5,13.8125 Z" id="Shape"></path>
            </g>
        </g>
    </g>
</svg>