<?xml version="1.0" encoding="UTF-8"?>
<svg width="46px" height="46px" viewBox="0 0 46 46" version="1.1" xmlns="http://www.w3.org/2000/svg" xmlns:xlink="http://www.w3.org/1999/xlink">
    <title>Group 15</title>
    <defs>
        <linearGradient x1="0%" y1="49.210108%" x2="100%" y2="49.210108%" id="linearGradient-1">
            <stop stop-color="#EE217D" offset="0%"></stop>
            <stop stop-color="#22AAE4" offset="100%"></stop>
        </linearGradient>
    </defs>
    <g id="icons" stroke="none" stroke-width="1" fill="none" fill-rule="evenodd">
        <g id="Artboard" transform="translate(-1009.000000, -69.000000)">
            <g id="Group-15" transform="translate(1013.000000, 73.000000)">
                <circle id="Oval" stroke="#FFFFFF" stroke-width="4" fill="url(#linearGradient-1)" cx="19" cy="19" r="21"></circle>
                <g id="Group-8" transform="translate(7.000000, 9.000000)" fill="#FFFFFF" fill-rule="nonzero">
                    <path d="M10.8806973,2.15776832 C9.78413246,2.22522197 8.32332412,0.073648808 5.85701187,1.09636524 C3.49613855,2.07543518 3.30730702,3.92545083 0.740348529,12.5763819 C0.140305207,14.5999916 -0.526835611,16.1236506 0.64737057,17.6889721 C1.63370376,19.0043184 3.3954923,19.3029 4.83329579,18.5569419 C5.20520762,18.3645006 5.4841415,17.8814134 5.85701187,17.3030975 C6.15990914,16.6741914 9.85698117,6.69601047 9.85698117,6.69204261 C10.2883222,5.79629776 11.9600084,5.89648628 11.7174989,7.65623307 C11.7174989,8.23256502 9.11219897,14.6664532 9.11219897,14.9878501 C8.79875781,17.260443 11.6820331,17.4846272 12.5543005,15.3737246 C12.6472785,15.277504 13.0191903,14.4095342 13.7639725,12.8660359 C17.4169519,5.29039536 16.0404947,8.24149271 17.1130961,6.0165141 C17.4850079,5.53441887 17.8569198,5.24476495 18.1368122,5.24476495 C18.601702,5.24476495 18.8806359,5.63063952 18.7876579,6.30616803 C18.7876579,7.08188505 16.0347435,12.1686841 15.2525784,14.6019755 C14.8605373,16.6345128 15.8804192,18.4478257 17.5779859,19.4249117 C18.1051805,19.7889631 21.3086067,20.4059656 22.3227374,19.617353 C23.3800022,19.2523097 23.0828562,17.6721087 22.2297594,17.4955388 C21.3018969,17.0144356 20.845634,17.4231254 19.6244595,16.917223 C16.9396011,15.8032457 22.9515368,6.60276571 22.6026298,3.70126663 C22.3236959,1.86811439 21.3929578,1.00014458 19.5324401,0.903923929 C18.4243729,0.903923929 18.3045559,1.42569778 17.7658589,1.36419592 C17.2271618,1.30269406 16.1085507,-0.0205879143 14.5106718,0.000243361193 C12.9127928,0.0210746366 11.7433793,2.10420218 10.8806973,2.15776832 L10.8806973,2.15776832 Z" id="Path"></path>
                </g>
            </g>
        </g>
    </g>
</svg>