<?xml version="1.0" encoding="UTF-8"?>
<svg width="5px" height="15px" viewBox="0 0 5 15" version="1.1" xmlns="http://www.w3.org/2000/svg" xmlns:xlink="http://www.w3.org/1999/xlink">
    <title>ic-three-dots</title>
    <g id="icons" stroke="none" stroke-width="1" fill="none" fill-rule="evenodd" opacity="0.5">
        <g id="Artboard" transform="translate(-130.000000, -42.000000)" fill="#000000">
            <path d="M132.25,55.5 C131.83675,55.5 131.5,55.16325 131.5,54.75 C131.5,54.33675 131.83675,54 132.25,54 C132.66325,54 133,54.33675 133,54.75 C133,55.16325 132.66325,55.5 132.25,55.5 M132.25,52.5 C131.00725,52.5 130,53.50725 130,54.75 C130,55.99275 131.00725,57 132.25,57 C133.49275,57 134.5,55.99275 134.5,54.75 C134.5,53.50725 133.49275,52.5 132.25,52.5 M132.25,50.25 C131.83675,50.25 131.5,49.91325 131.5,49.5 C131.5,49.08675 131.83675,48.75 132.25,48.75 C132.66325,48.75 133,49.08675 133,49.5 C133,49.91325 132.66325,50.25 132.25,50.25 M132.25,47.25 C131.00725,47.25 130,48.25725 130,49.5 C130,50.74275 131.00725,51.75 132.25,51.75 C133.49275,51.75 134.5,50.74275 134.5,49.5 C134.5,48.25725 133.49275,47.25 132.25,47.25 M132.25,43.5 C132.66325,43.5 133,43.83675 133,44.25 C133,44.66325 132.66325,45 132.25,45 C131.83675,45 131.5,44.66325 131.5,44.25 C131.5,43.83675 131.83675,43.5 132.25,43.5 M132.25,46.5 C133.49275,46.5 134.5,45.49275 134.5,44.25 C134.5,43.00725 133.49275,42 132.25,42 C131.00725,42 130,43.00725 130,44.25 C130,45.49275 131.00725,46.5 132.25,46.5" id="ic-three-dots"></path>
        </g>
    </g>
</svg>