<?xml version="1.0" encoding="UTF-8"?>
<svg width="10px" height="12px" viewBox="0 0 10 12" version="1.1" xmlns="http://www.w3.org/2000/svg" xmlns:xlink="http://www.w3.org/1999/xlink">
    <title>vuesax/outline/location</title>
    <g id="icons" stroke="none" stroke-width="1" fill="none" fill-rule="evenodd">
        <g id="Artboard" transform="translate(-1832.000000, -578.000000)">
            <g id="location" transform="translate(1831.000000, 578.000000)">
                <path d="M4.06542969,5.14997077 C4.06542969,4.07997072 4.93542957,3.2199707 6.00042963,3.2199707 C7.06542969,3.2199707 7.93542957,4.08497083 7.93542957,5.15497088 C7.93542957,6.22497094 7.06542969,7.08497071 6.00042963,7.08497071 C4.93542957,7.08497071 4.06542969,6.2199707 4.06542969,5.14997077 Z M4.81542969,5.15497088 C4.81542969,5.80997086 5.34542966,6.33997083 6.00042963,6.33997083 C6.6554296,6.33997083 7.18542957,5.80997086 7.18542957,5.15497088 C7.18542957,4.49997091 6.65042961,3.9699707 6.00042963,3.9699707 C5.35042965,3.9699707 4.81542969,4.49997091 4.81542969,5.15497088 Z" id="Vector" fill="#000000"></path>
                <path d="M3.93484378,10.5450001 C2.45984375,9.125 0.829843998,6.8599999 1.44484401,4.16499996 C1.99984401,1.72000003 4.13484406,0.625 5.99984407,0.625 C5.99984415,0.625 6.00151086,0.625 6.00484419,0.625 C7.8698442,0.625 10.004844,1.72000003 10.559844,4.17000008 C11.169844,6.86500001 9.53984368,9.125 8.06484365,10.5450001 C7.48484367,11.1000001 6.73984408,11.3800001 5.99984407,11.3800001 C5.25984406,11.3800001 4.51484376,11.1000001 3.93484378,10.5450001 Z M2.17984402,4.32999992 C1.639844,6.68499994 3.11984384,8.71500003 4.45984387,10 C5.32484388,10.835 6.67984414,10.835 7.54484415,10 C8.87984419,8.71500003 10.3598435,6.68499994 9.82984352,4.32999992 C9.32984352,2.14999986 7.45484412,1.375 5.99984407,1.375 C4.54484403,1.375 2.67484403,2.14999986 2.17984402,4.32999992 Z" id="Vector" fill="#000000"></path>
                <path d="M12,0 L12,12 L0,12 L0,0 L12,0 Z" id="Vector" opacity="0"></path>
            </g>
        </g>
    </g>
</svg>