<?xml version="1.0" encoding="UTF-8"?>
<svg width="13px" height="13px" viewBox="0 0 13 13" version="1.1" xmlns="http://www.w3.org/2000/svg" xmlns:xlink="http://www.w3.org/1999/xlink">
    <title>Group</title>
    <g id="icons" stroke="none" stroke-width="1" fill="none" fill-rule="evenodd">
        <g id="Artboard" transform="translate(-467.000000, -248.000000)" fill="#000000" fill-rule="nonzero">
            <g id="Group" transform="translate(467.000000, 248.000000)">
                <path d="M11.2159646,12.7154547 L1.45141751,12.7154547 C0.650712094,12.7154547 0,12.0621861 0,11.2585514 L0,3.57629182 C0,2.77256004 0.650712094,2.11938852 1.45141751,2.11938852 L3.29879037,2.11938852 C3.51730515,2.11938852 3.69464908,2.29740272 3.69464908,2.51674343 C3.69464908,2.7360841 3.51730515,2.91409833 3.29879037,2.91409833 L1.45141751,2.91409833 C1.08774164,2.91409833 0.791717412,3.21124142 0.791717412,3.57629182 L0.791717412,11.2585514 C0.791717412,11.6235047 1.08774164,11.9207448 1.45141751,11.9207448 L11.2159646,11.9207448 C11.5796404,11.9207448 11.8757613,11.6235047 11.8757613,11.2585514 L11.8757613,6.75513107 C11.8757613,6.53579039 12.0531052,6.35777616 12.27162,6.35777616 C12.4901348,6.35777616 12.6674787,6.53579039 12.6674787,6.75513107 L12.6674787,11.2585514 C12.6674787,12.0621861 12.01667,12.7154547 11.2159646,12.7154547 L11.2159646,12.7154547 Z" id="Path"></path>
                <path d="M3.56214852,8.47017926 C3.53315496,8.47017926 3.50406474,8.46697792 3.4750712,8.4595081 C3.29618095,8.4176966 3.16686967,8.26403201 3.16686967,8.07971211 L3.16686967,7.2850023 C3.16686967,4.43677475 5.47553003,2.11938852 8.31303288,2.11938852 L8.44495359,2.11938852 L8.44495359,0.397452575 C8.44495359,0.235348065 8.54314511,0.0896383441 8.69304178,0.0287157658 C8.84235862,-0.0316247621 9.01390382,0.00485117652 9.12581897,0.121942826 L12.5566267,3.69813698 C12.7043972,3.85180157 12.7043972,4.09549188 12.5566267,4.24915648 L9.12581897,7.82535063 C9.01390382,7.94244228 8.84129552,7.97853018 8.69304178,7.91857769 C8.54314511,7.85765514 8.44495359,7.71194539 8.44495359,7.54984088 L8.44495359,5.82800196 L7.81791958,5.82800196 C6.15745851,5.82800196 4.66525673,6.75406397 3.92321496,8.24443588 C3.85508008,8.38219076 3.71204519,8.47017926 3.56214852,8.47017926 L3.56214852,8.47017926 Z M8.31303288,2.91409833 C6.09618547,2.91409833 4.26050667,4.5855888 3.99183303,6.73922135 C4.9513265,5.66483033 6.32736077,5.03329215 7.81791958,5.03329215 L8.8408123,5.03329215 C9.05932707,5.03329215 9.23667101,5.21130638 9.23667101,5.43064706 L9.23667101,6.56440849 L11.7220954,3.97364673 L9.23667101,1.38288499 L9.23667101,2.51674343 C9.23667101,2.7360841 9.05932707,2.91409833 8.8408123,2.91409833 L8.31303288,2.91409833 Z" id="Shape"></path>
            </g>
        </g>
    </g>
</svg>