<?xml version="1.0" encoding="UTF-8"?>
<svg width="13px" height="13px" viewBox="0 0 13 13" version="1.1" xmlns="http://www.w3.org/2000/svg" xmlns:xlink="http://www.w3.org/1999/xlink">
    <title>vuesax/outline/star copy</title>
    <g id="icons" stroke="none" stroke-width="1" fill="none" fill-rule="evenodd">
        <g id="Artboard" transform="translate(-1825.000000, -503.000000)">
            <g id="star" transform="translate(1825.000000, 503.000000)">
                <path d="M8.45006426,11.9167039 L6.83048054,10.9579536 C6.66256387,10.8604536 6.33756385,10.8604536 6.17506385,10.9579536 L4.55006359,11.9167039 C3.5913136,12.4854538 3.0279804,12.2579544 2.77339707,12.0737877 C2.5242304,11.889621 2.13423038,11.4183705 2.38881371,10.3350372 L2.77339707,8.67212065 C2.8167304,8.49878732 2.7300639,8.20087032 2.6000639,8.07087032 L1.25673043,6.72753723 C0.585063756,6.05587056 0.639230492,5.48170406 0.731313826,5.2000374 C0.82339716,4.91837074 1.1158971,4.42003687 2.04756378,4.26295354 L3.77548035,3.97587035 C3.93798036,3.94878702 4.17089709,3.7754535 4.24131376,3.6292035 L5.20006426,1.71712037 C5.6333976,0.845037033 6.20214738,0.715037028 6.50006406,0.715037028 C6.79798073,0.715037028 7.36673051,0.845037033 7.80006385,1.71712037 L8.75339731,3.62378697 C8.82923064,3.77003697 9.06214775,3.94337023 9.22464776,3.97045356 L10.9525637,4.25753701 C11.889647,4.41462034 12.1821472,4.91295395 12.2688138,5.19462061 C12.3554805,5.47628727 12.4096476,6.05045377 11.7433976,6.72212044 L10.4000645,8.07087032 C10.2700645,8.20087032 10.1888136,8.49337064 10.2267303,8.67212065 L10.6113141,10.3350372 C10.8604808,11.4183705 10.4758969,11.889621 10.2267303,12.0737877 C10.0913136,12.1712877 9.8746473,12.2796206 9.56589731,12.2796206 C9.27881399,12.2796206 8.91048094,12.1875372 8.45006426,11.9167039 Z M7.24214733,10.2592041 L8.86173105,11.2179534 C9.33298105,11.49962 9.63089727,11.4996205 9.74464726,11.4183705 C9.85839726,11.3371205 9.93964693,11.0500372 9.82048027,10.5192039 L9.43589743,8.8562874 C9.33298076,8.40670408 9.50089704,7.82712062 9.82589706,7.49670394 L11.1692312,6.15337034 C11.4346478,5.88795367 11.5538138,5.62795409 11.4996471,5.44920409 C11.4400638,5.27045408 11.1908971,5.12420407 10.8225638,5.06462073 L9.09464788,4.77753677 C8.67756456,4.70712011 8.22256401,4.37128687 8.03298068,3.99212021 L7.07964722,2.08545355 C6.90631389,1.73878689 6.68964739,1.53295362 6.50006406,1.53295362 C6.31048073,1.53295362 6.09381383,1.73878689 5.92589716,2.08545355 L4.96714717,3.99212021 C4.77756384,4.37128687 4.32256381,4.70712011 3.90548048,4.77753677 L2.18298058,5.06462073 C1.81464724,5.12420407 1.56548045,5.27045408 1.50589711,5.44920409 C1.44631378,5.62795409 1.57089718,5.89337035 1.83631385,6.15337034 L3.17964707,7.49670394 C3.50464708,7.82170396 3.67256388,8.40670408 3.56964721,8.8562874 L3.18506386,10.5192039 C3.06048052,11.0554539 3.14714712,11.3371205 3.26089712,11.4183705 C3.37464712,11.4996205 3.66714718,11.4942034 4.14381385,11.2179534 L5.76339757,10.2592041 C5.96923091,10.1346208 6.23464738,10.0696206 6.50006406,10.0696206 C6.76548073,10.0696206 7.03089733,10.1346208 7.24214733,10.2592041 Z" id="Vector" fill="#292D32"></path>
                <path d="M13,0 L13,13 L0,13 L0,0 L13,0 Z" id="Vector" opacity="0"></path>
            </g>
        </g>
    </g>
</svg>