<?xml version="1.0" encoding="UTF-8"?>
<svg width="15px" height="15px" viewBox="0 0 15 15" version="1.1" xmlns="http://www.w3.org/2000/svg" xmlns:xlink="http://www.w3.org/1999/xlink">
    <title>vuesax/outline/tick-circle</title>
    <g id="icons" stroke="none" stroke-width="1" fill="none" fill-rule="evenodd">
        <g id="Artboard" transform="translate(-1805.000000, -531.000000)" fill="#292D32">
            <g id="tick-circle" transform="translate(1805.885417, 531.885417)">
                <path d="M0,6.6145835 C0,2.96579475 2.96579475,0 6.6145835,0 C10.2633722,0 13.229167,2.96579475 13.229167,6.6145835 C13.229167,10.2633722 10.2633722,13.229167 6.6145835,13.229167 C2.96579475,13.229167 0,10.2633722 0,6.6145835 Z M0.92296514,6.6145835 C0.92296514,9.75266492 3.47650208,12.3062019 6.6145835,12.3062019 C9.75266492,12.3062019 12.3062019,9.75266492 12.3062019,6.6145835 C12.3062019,3.47650208 9.75266492,0.92296514 6.6145835,0.92296514 C3.47650208,0.92296514 0.92296514,3.47650208 0.92296514,6.6145835 Z" id="Vector"></path>
                <path d="M5.41439255,8.68208535 L3.67306476,6.94075783 C3.49462484,6.76231791 3.49462484,6.46696924 3.67306476,6.28852932 C3.85150468,6.11008939 4.14685348,6.11008939 4.3252934,6.28852932 L5.74050673,7.70374279 L8.90320097,4.54104858 C9.08164089,4.36260865 9.37699001,4.36260865 9.55542993,4.54104858 C9.73386985,4.7194885 9.73386985,5.01483701 9.55542993,5.19327693 L6.06662107,8.68208535 C5.98047765,8.76822876 5.86356876,8.81745373 5.74050673,8.81745373 C5.61744471,8.81745373 5.50053596,8.76822876 5.41439255,8.68208535 Z" id="Vector" fill-rule="nonzero"></path>
            </g>
        </g>
    </g>
</svg>