<svg width="80" height="80" viewBox="0 0 80 80" fill="none" xmlns="http://www.w3.org/2000/svg">
<path d="M18.4998 58.75C21.9998 56.3055 25.4721 54.4305 28.9165 53.125C32.3609 51.8194 36.0554 51.1666 39.9998 51.1666C43.9443 51.1666 47.6526 51.8194 51.1248 53.125C54.5971 54.4305 58.0832 56.3055 61.5832 58.75C64.0276 55.75 65.7637 52.7222 66.7915 49.6666C67.8193 46.6111 68.3332 43.3888 68.3332 40C68.3332 31.9444 65.6248 25.2083 60.2082 19.7916C54.7915 14.375 48.0554 11.6666 39.9998 11.6666C31.9443 11.6666 25.2082 14.375 19.7915 19.7916C14.3748 25.2083 11.6665 31.9444 11.6665 40C11.6665 43.3888 12.1943 46.6111 13.2498 49.6666C14.3054 52.7222 16.0554 55.75 18.4998 58.75ZM39.9998 42.5C36.7776 42.5 34.0693 41.4027 31.8748 39.2083C29.6804 37.0138 28.5832 34.3055 28.5832 31.0833C28.5832 27.8611 29.6804 25.1527 31.8748 22.9583C34.0693 20.7638 36.7776 19.6666 39.9998 19.6666C43.2221 19.6666 45.9304 20.7638 48.1248 22.9583C50.3193 25.1527 51.4165 27.8611 51.4165 31.0833C51.4165 34.3055 50.3193 37.0138 48.1248 39.2083C45.9304 41.4027 43.2221 42.5 39.9998 42.5ZM39.9998 73.3333C35.4443 73.3333 31.1387 72.4583 27.0832 70.7083C23.0276 68.9583 19.4859 66.5694 16.4582 63.5416C13.4304 60.5138 11.0415 56.9722 9.2915 52.9166C7.5415 48.8611 6.6665 44.5555 6.6665 40C6.6665 35.3888 7.5415 31.0694 9.2915 27.0416C11.0415 23.0138 13.4304 19.4861 16.4582 16.4583C19.4859 13.4305 23.0276 11.0416 27.0832 9.29163C31.1387 7.54163 35.4443 6.66663 39.9998 6.66663C44.6109 6.66663 48.9304 7.54163 52.9582 9.29163C56.9859 11.0416 60.5137 13.4305 63.5415 16.4583C66.5693 19.4861 68.9582 23.0138 70.7082 27.0416C72.4582 31.0694 73.3332 35.3888 73.3332 40C73.3332 44.5555 72.4582 48.8611 70.7082 52.9166C68.9582 56.9722 66.5693 60.5138 63.5415 63.5416C60.5137 66.5694 56.9859 68.9583 52.9582 70.7083C48.9304 72.4583 44.6109 73.3333 39.9998 73.3333ZM39.9998 68.3333C43.0554 68.3333 46.0415 67.8888 48.9582 67C51.8748 66.1111 54.7498 64.5555 57.5832 62.3333C54.7498 60.3333 51.8609 58.8055 48.9165 57.75C45.9721 56.6944 42.9998 56.1666 39.9998 56.1666C36.9998 56.1666 34.0276 56.6944 31.0832 57.75C28.1387 58.8055 25.2498 60.3333 22.4165 62.3333C25.2498 64.5555 28.1248 66.1111 31.0415 67C33.9582 67.8888 36.9443 68.3333 39.9998 68.3333ZM39.9998 37.5C41.8887 37.5 43.4304 36.9027 44.6248 35.7083C45.8193 34.5138 46.4165 32.9722 46.4165 31.0833C46.4165 29.1944 45.8193 27.6527 44.6248 26.4583C43.4304 25.2638 41.8887 24.6666 39.9998 24.6666C38.1109 24.6666 36.5693 25.2638 35.3748 26.4583C34.1804 27.6527 33.5832 29.1944 33.5832 31.0833C33.5832 32.9722 34.1804 34.5138 35.3748 35.7083C36.5693 36.9027 38.1109 37.5 39.9998 37.5Z" fill="#EE2A7B"/>
</svg>
