<svg width="80" height="80" viewBox="0 0 80 80" fill="none" xmlns="http://www.w3.org/2000/svg">
<path d="M39.9998 73.3334C35.3887 73.3334 31.0554 72.4584 26.9998 70.7084C22.9443 68.9584 19.4165 66.5834 16.4165 63.5834C13.4165 60.5834 11.0415 57.0556 9.2915 53.0001C7.5415 48.9445 6.6665 44.6112 6.6665 40.0001C6.6665 35.389 7.5415 31.0556 9.2915 27.0001C11.0415 22.9445 13.4165 19.4167 16.4165 16.4167C19.4165 13.4167 22.9443 11.0417 26.9998 9.29175C31.0554 7.54175 35.3887 6.66675 39.9998 6.66675C44.6109 6.66675 48.9443 7.54175 52.9998 9.29175C57.0554 11.0417 60.5832 13.4167 63.5832 16.4167C66.5832 19.4167 68.9582 22.9445 70.7082 27.0001C72.4582 31.0556 73.3332 35.389 73.3332 40.0001C73.3332 44.6112 72.4582 48.9445 70.7082 53.0001C68.9582 57.0556 66.5832 60.5834 63.5832 63.5834C60.5832 66.5834 57.0554 68.9584 52.9998 70.7084C48.9443 72.4584 44.6109 73.3334 39.9998 73.3334ZM39.9998 68.3334C47.8887 68.3334 54.5832 65.5834 60.0832 60.0834C65.5832 54.5834 68.3332 47.889 68.3332 40.0001C68.3332 36.6112 67.7498 33.3612 66.5832 30.2501C65.4165 27.139 63.7776 24.3056 61.6665 21.7501L21.7498 61.6667C24.2498 63.8334 27.0693 65.4862 30.2082 66.6251C33.3471 67.764 36.6109 68.3334 39.9998 68.3334ZM18.4165 58.2501L58.2498 18.4167C55.6943 16.2501 52.8609 14.5834 49.7498 13.4167C46.6387 12.2501 43.3887 11.6667 39.9998 11.6667C32.1109 11.6667 25.4165 14.4167 19.9165 19.9167C14.4165 25.4167 11.6665 32.1112 11.6665 40.0001C11.6665 43.389 12.2776 46.6529 13.4998 49.7917C14.7221 52.9306 16.3609 55.7501 18.4165 58.2501Z" fill="#EE2A7B"/>
</svg>
