<svg width="70" height="70" viewBox="0 0 70 70" fill="none" xmlns="http://www.w3.org/2000/svg">
<path d="M25.0104 39.375H41.4167V35H25.0104V39.375ZM25.0104 32.8125H53.8125V28.4375H25.0104V32.8125ZM25.0104 26.25H53.8125V21.875H25.0104V26.25ZM18.9583 55.4167C17.7917 55.4167 16.7708 54.9792 15.8958 54.1042C15.0208 53.2292 14.5833 52.2084 14.5833 51.0417V10.2084C14.5833 9.04171 15.0208 8.02087 15.8958 7.14587C16.7708 6.27087 17.7917 5.83337 18.9583 5.83337H59.7917C60.9583 5.83337 61.9792 6.27087 62.8542 7.14587C63.7292 8.02087 64.1667 9.04171 64.1667 10.2084V51.0417C64.1667 52.2084 63.7292 53.2292 62.8542 54.1042C61.9792 54.9792 60.9583 55.4167 59.7917 55.4167H18.9583ZM18.9583 51.0417H59.7917V10.2084H18.9583V51.0417ZM10.2083 64.1667C9.04168 64.1667 8.02084 63.7292 7.14584 62.8542C6.27084 61.9792 5.83334 60.9584 5.83334 59.7917V14.5834H10.2083V59.7917H55.4167V64.1667H10.2083ZM18.9583 10.2084V51.0417V10.2084Z" fill="black"/>
</svg>
