<svg width="80" height="80" viewBox="0 0 80 80" fill="none" xmlns="http://www.w3.org/2000/svg">
<path d="M18.3333 73.3333C17 73.3333 15.8333 72.8333 14.8333 71.8333C13.8333 70.8333 13.3333 69.6666 13.3333 68.3333V25C13.3333 23.6666 13.8333 22.5 14.8333 21.5C15.8333 20.5 17 20 18.3333 20H27.5V19.1666C27.5 15.6666 28.7083 12.7083 31.125 10.2916C33.5417 7.87496 36.5 6.66663 40 6.66663C43.5 6.66663 46.4583 7.87496 48.875 10.2916C51.2917 12.7083 52.5 15.6666 52.5 19.1666V20H61.6667C63 20 64.1667 20.5 65.1667 21.5C66.1667 22.5 66.6667 23.6666 66.6667 25V68.3333C66.6667 69.6666 66.1667 70.8333 65.1667 71.8333C64.1667 72.8333 63 73.3333 61.6667 73.3333H18.3333ZM18.3333 68.3333H61.6667V25H52.5V32.5C52.5 33.2222 52.2639 33.8194 51.7917 34.2916C51.3195 34.7638 50.7222 35 50 35C49.2778 35 48.6806 34.7638 48.2083 34.2916C47.7361 33.8194 47.5 33.2222 47.5 32.5V25H32.5V32.5C32.5 33.2222 32.2639 33.8194 31.7917 34.2916C31.3194 34.7638 30.7222 35 30 35C29.2778 35 28.6806 34.7638 28.2083 34.2916C27.7361 33.8194 27.5 33.2222 27.5 32.5V25H18.3333V68.3333ZM32.5 20H47.5V19.1666C47.5 17.0555 46.7778 15.2777 45.3333 13.8333C43.8889 12.3888 42.1111 11.6666 40 11.6666C37.8889 11.6666 36.1111 12.3888 34.6667 13.8333C33.2222 15.2777 32.5 17.0555 32.5 19.1666V20ZM18.3333 68.3333V25V68.3333Z" fill="#EE2A7B"/>
</svg>
