<svg width="80" height="80" viewBox="0 0 80 80" fill="none" xmlns="http://www.w3.org/2000/svg">
<path d="M23.0833 56.75H46V51.75H23.0833V56.75ZM23.0833 42.5H56.9167V37.5H23.0833V42.5ZM23.0833 28.25H56.9167V23.25H23.0833V28.25ZM15 70C13.6667 70 12.5 69.5 11.5 68.5C10.5 67.5 10 66.3333 10 65V15C10 13.6667 10.5 12.5 11.5 11.5C12.5 10.5 13.6667 10 15 10H65C66.3333 10 67.5 10.5 68.5 11.5C69.5 12.5 70 13.6667 70 15V65C70 66.3333 69.5 67.5 68.5 68.5C67.5 69.5 66.3333 70 65 70H15ZM15 65H65V15H15V65ZM15 15V65V15Z" fill="#EE2A7B"/>
</svg>
