<svg width="80" height="80" viewBox="0 0 80 80" fill="none" xmlns="http://www.w3.org/2000/svg">
<path d="M26.5835 59.1667H53.4168V54.1667H26.5835V59.1667ZM26.5835 45.0001H53.4168V40.0001H26.5835V45.0001ZM18.3335 73.3334C17.0002 73.3334 15.8335 72.8334 14.8335 71.8334C13.8335 70.8334 13.3335 69.6667 13.3335 68.3334V11.6667C13.3335 10.3334 13.8335 9.16675 14.8335 8.16675C15.8335 7.16675 17.0002 6.66675 18.3335 6.66675H48.4168L66.6668 24.9167V68.3334C66.6668 69.6667 66.1668 70.8334 65.1668 71.8334C64.1668 72.8334 63.0002 73.3334 61.6668 73.3334H18.3335ZM45.9168 27.1667V11.6667H18.3335V68.3334H61.6668V27.1667H45.9168ZM18.3335 11.6667V27.1667V11.6667V68.3334V11.6667Z" fill="#EE2A7B"/>
</svg>
