<svg width="70" height="70" viewBox="0 0 70 70" fill="none" xmlns="http://www.w3.org/2000/svg">
<path d="M31.5729 53.375L21.5104 43.3855L24.5729 40.323L31.5729 47.1771L44.9896 33.7605L48.0521 36.8959L31.5729 53.375ZM13.125 64.1667C11.9583 64.1667 10.9375 63.7292 10.0625 62.8542C9.1875 61.9792 8.75 60.9584 8.75 59.7917V14.5834C8.75 13.4167 9.1875 12.3959 10.0625 11.5209C10.9375 10.6459 11.9583 10.2084 13.125 10.2084H17.8646V5.83337H22.6042V10.2084H47.3958V5.83337H52.1354V10.2084H56.875C58.0417 10.2084 59.0625 10.6459 59.9375 11.5209C60.8125 12.3959 61.25 13.4167 61.25 14.5834V59.7917C61.25 60.9584 60.8125 61.9792 59.9375 62.8542C59.0625 63.7292 58.0417 64.1667 56.875 64.1667H13.125ZM13.125 59.7917H56.875V28.4375H13.125V59.7917ZM13.125 24.0625H56.875V14.5834H13.125V24.0625ZM13.125 24.0625V14.5834V24.0625Z" fill="black"/>
</svg>
