<svg width="70" height="70" viewBox="0 0 70 70" fill="none" xmlns="http://www.w3.org/2000/svg">
<path d="M19.1771 50.823L40.3229 40.3959L50.75 19.25L29.6041 29.6771L19.1771 50.823ZM35 37.9167C34.1736 37.9167 33.4809 37.6372 32.9219 37.0782C32.3628 36.5191 32.0833 35.8264 32.0833 35C32.0833 34.1737 32.3628 33.4809 32.9219 32.9219C33.4809 32.3629 34.1736 32.0834 35 32.0834C35.8264 32.0834 36.5191 32.3629 37.0781 32.9219C37.6371 33.4809 37.9166 34.1737 37.9166 35C37.9166 35.8264 37.6371 36.5191 37.0781 37.0782C36.5191 37.6372 35.8264 37.9167 35 37.9167ZM35 64.1667C31.0139 64.1667 27.2465 63.4011 23.6979 61.8698C20.1493 60.3386 17.0503 58.2483 14.401 55.599C11.7517 52.9497 9.66144 49.8507 8.13019 46.3021C6.59894 42.7535 5.83331 38.9861 5.83331 35C5.83331 30.9653 6.59894 27.1737 8.13019 23.625C9.66144 20.0764 11.7517 16.9896 14.401 14.3646C17.0503 11.7396 20.1493 9.6615 23.6979 8.13025C27.2465 6.599 31.0139 5.83337 35 5.83337C39.0347 5.83337 42.8264 6.599 46.375 8.13025C49.9236 9.6615 53.0104 11.7396 55.6354 14.3646C58.2604 16.9896 60.3385 20.0764 61.8698 23.625C63.401 27.1737 64.1666 30.9653 64.1666 35C64.1666 38.9861 63.401 42.7535 61.8698 46.3021C60.3385 49.8507 58.2604 52.9497 55.6354 55.599C53.0104 58.2483 49.9236 60.3386 46.375 61.8698C42.8264 63.4011 39.0347 64.1667 35 64.1667ZM35 59.7917C41.9028 59.7917 47.7604 57.3733 52.5729 52.5365C57.3854 47.6997 59.7916 41.8542 59.7916 35C59.7916 28.0973 57.3854 22.2396 52.5729 17.4271C47.7604 12.6146 41.9028 10.2084 35 10.2084C28.1458 10.2084 22.3003 12.6146 17.4635 17.4271C12.6267 22.2396 10.2083 28.0973 10.2083 35C10.2083 41.8542 12.6267 47.6997 17.4635 52.5365C22.3003 57.3733 28.1458 59.7917 35 59.7917Z" fill="black"/>
</svg>
