<svg width="53" height="47" viewBox="0 0 53 47" fill="none" xmlns="http://www.w3.org/2000/svg">
<path d="M0 19.25C0 18.4236 0.157986 17.6458 0.473957 16.9167C0.789928 16.1875 1.21528 15.5556 1.75 15.0208L16.7708 0L21 4.08333C21.6806 4.76389 22.2031 5.52951 22.5677 6.38021C22.9323 7.2309 22.9931 8.11805 22.75 9.04167L21.4375 14.7292L45.2083 14.7292C47.25 14.7292 48.9757 15.434 50.3854 16.8438C51.7951 18.2535 52.5 19.9792 52.5 22.0208C52.5 24.0625 51.7951 25.7882 50.3854 27.1979C48.9757 28.6076 47.25 29.3125 45.2083 29.3125H32.6667V31.2083C32.6667 31.4514 32.6181 31.6701 32.5208 31.8646C32.4236 32.059 32.3264 32.2778 32.2292 32.5208L26.9792 43.3125C26.4444 44.4792 25.5816 45.342 24.3906 45.901C23.1997 46.4601 21.9722 46.6181 20.7083 46.375L4.8125 43.75C3.40277 43.5069 2.24826 42.8264 1.34896 41.7083C0.44965 40.5903 0 39.3264 0 37.9167V19.25ZM4.375 18.6667V39.1562L22.5313 42.2917L29.1667 28.9479V24.9375H45.2083C46.0833 24.9375 46.7882 24.6701 47.3229 24.1354C47.8576 23.6007 48.125 22.8958 48.125 22.0208C48.125 21.1458 47.8576 20.441 47.3229 19.9062C46.7882 19.3715 46.0833 19.1042 45.2083 19.1042L16.1146 19.1042L18.5208 7.875L16.8437 6.19792L4.375 18.6667ZM4.375 18.6667V39.1562V18.6667Z" fill="white"/>
</svg>
