<svg width="80" height="80" viewBox="0 0 80 80" fill="none" xmlns="http://www.w3.org/2000/svg">
<path d="M40.3332 59.4167C41.2221 59.4167 41.9721 59.1112 42.5832 58.5001C43.1943 57.889 43.4998 57.139 43.4998 56.2501C43.4998 55.3612 43.1943 54.6112 42.5832 54.0001C41.9721 53.389 41.2221 53.0834 40.3332 53.0834C39.4443 53.0834 38.6943 53.389 38.0832 54.0001C37.4721 54.6112 37.1665 55.3612 37.1665 56.2501C37.1665 57.139 37.4721 57.889 38.0832 58.5001C38.6943 59.1112 39.4443 59.4167 40.3332 59.4167ZM37.4165 47.2501H42.3332C42.3332 45.8056 42.5137 44.4862 42.8748 43.2917C43.2359 42.0973 44.3609 40.7223 46.2498 39.1667C47.9721 37.7223 49.1943 36.3056 49.9165 34.9167C50.6387 33.5279 50.9998 32.0001 50.9998 30.3334C50.9998 27.389 50.0415 25.0279 48.1248 23.2501C46.2082 21.4723 43.6665 20.5834 40.4998 20.5834C37.7776 20.5834 35.3748 21.264 33.2915 22.6251C31.2082 23.9862 29.6943 25.8612 28.7498 28.2501L33.1665 29.9167C33.7776 28.3612 34.6943 27.1529 35.9165 26.2917C37.1387 25.4306 38.5832 25.0001 40.2498 25.0001C42.1387 25.0001 43.6665 25.514 44.8332 26.5417C45.9998 27.5695 46.5832 28.889 46.5832 30.5001C46.5832 31.7223 46.2221 32.8751 45.4998 33.9584C44.7776 35.0417 43.7221 36.1667 42.3332 37.3334C40.6665 38.7779 39.4304 40.2084 38.6248 41.6251C37.8193 43.0417 37.4165 44.9167 37.4165 47.2501ZM39.9998 73.3334C35.4443 73.3334 31.1387 72.4584 27.0832 70.7084C23.0276 68.9584 19.4859 66.5695 16.4582 63.5417C13.4304 60.514 11.0415 56.9723 9.2915 52.9167C7.5415 48.8612 6.6665 44.5556 6.6665 40.0001C6.6665 35.389 7.5415 31.0556 9.2915 27.0001C11.0415 22.9445 13.4304 19.4167 16.4582 16.4167C19.4859 13.4167 23.0276 11.0417 27.0832 9.29175C31.1387 7.54175 35.4443 6.66675 39.9998 6.66675C44.6109 6.66675 48.9443 7.54175 52.9998 9.29175C57.0554 11.0417 60.5832 13.4167 63.5832 16.4167C66.5832 19.4167 68.9582 22.9445 70.7082 27.0001C72.4582 31.0556 73.3332 35.389 73.3332 40.0001C73.3332 44.5556 72.4582 48.8612 70.7082 52.9167C68.9582 56.9723 66.5832 60.514 63.5832 63.5417C60.5832 66.5695 57.0554 68.9584 52.9998 70.7084C48.9443 72.4584 44.6109 73.3334 39.9998 73.3334ZM39.9998 68.3334C47.8887 68.3334 54.5832 65.5695 60.0832 60.0417C65.5832 54.514 68.3332 47.8334 68.3332 40.0001C68.3332 32.1112 65.5832 25.4167 60.0832 19.9167C54.5832 14.4167 47.8887 11.6667 39.9998 11.6667C32.1665 11.6667 25.4859 14.4167 19.9582 19.9167C14.4304 25.4167 11.6665 32.1112 11.6665 40.0001C11.6665 47.8334 14.4304 54.514 19.9582 60.0417C25.4859 65.5695 32.1665 68.3334 39.9998 68.3334Z" fill="#EE2A7B"/>
</svg>
