<svg width="70" height="70" viewBox="0 0 70 70" fill="none" xmlns="http://www.w3.org/2000/svg">
<path d="M32.8125 49.5833H37.1875V37.1875H49.5833V32.8125H37.1875V20.4167H32.8125V32.8125H20.4167V37.1875H32.8125V49.5833ZM13.125 61.25C11.9583 61.25 10.9375 60.8125 10.0625 59.9375C9.1875 59.0625 8.75 58.0417 8.75 56.875V13.125C8.75 11.9583 9.1875 10.9375 10.0625 10.0625C10.9375 9.1875 11.9583 8.75 13.125 8.75H56.875C58.0417 8.75 59.0625 9.1875 59.9375 10.0625C60.8125 10.9375 61.25 11.9583 61.25 13.125V56.875C61.25 58.0417 60.8125 59.0625 59.9375 59.9375C59.0625 60.8125 58.0417 61.25 56.875 61.25H13.125ZM13.125 56.875H56.875V13.125H13.125V56.875ZM13.125 13.125V56.875V13.125Z" fill="black"/>
</svg>
