<svg width="70" height="70" viewBox="0 0 70 70" fill="none" xmlns="http://www.w3.org/2000/svg">
<path d="M58.0417 61.1771L38.8646 42C37.4062 43.2639 35.7049 44.2483 33.7604 44.9531C31.816 45.658 29.75 46.0104 27.5625 46.0104C22.3125 46.0104 17.8646 44.1875 14.2188 40.5417C10.5729 36.8958 8.75 32.4965 8.75 27.3438C8.75 22.191 10.5729 17.7917 14.2188 14.1458C17.8646 10.5 22.2882 8.67709 27.4896 8.67709C32.6424 8.67709 37.0295 10.5 40.651 14.1458C44.2726 17.7917 46.0833 22.191 46.0833 27.3438C46.0833 29.434 45.7431 31.4514 45.0625 33.3958C44.3819 35.3403 43.3611 37.1632 42 38.8646L61.25 57.9688L58.0417 61.1771ZM27.4896 41.6354C31.4271 41.6354 34.7812 40.2379 37.5521 37.4427C40.3229 34.6476 41.7083 31.2813 41.7083 27.3438C41.7083 23.4063 40.3229 20.0399 37.5521 17.2448C34.7812 14.4497 31.4271 13.0521 27.4896 13.0521C23.5035 13.0521 20.1128 14.4497 17.3177 17.2448C14.5226 20.0399 13.125 23.4063 13.125 27.3438C13.125 31.2813 14.5226 34.6476 17.3177 37.4427C20.1128 40.2379 23.5035 41.6354 27.4896 41.6354Z" fill="black"/>
</svg>
