<svg width="80" height="80" viewBox="0 0 80 80" fill="none" xmlns="http://www.w3.org/2000/svg">
<path d="M20 46.75H46.0833V41.75H20V46.75ZM20 35.9166H60V30.9166H20V35.9166ZM20 25.0833H60V20.0833H20V25.0833ZM6.66666 73.3333V11.6666C6.66666 10.3888 7.16666 9.23607 8.16666 8.20829C9.16666 7.18052 10.3333 6.66663 11.6667 6.66663H68.3333C69.6111 6.66663 70.7639 7.18052 71.7917 8.20829C72.8194 9.23607 73.3333 10.3888 73.3333 11.6666V55C73.3333 56.2777 72.8194 57.4305 71.7917 58.4583C70.7639 59.4861 69.6111 60 68.3333 60H20L6.66666 73.3333ZM11.6667 61.25L17.9167 55H68.3333V11.6666H11.6667V61.25ZM11.6667 11.6666V61.25V11.6666Z" fill="#EE2A7B"/>
</svg>
