<svg width="70" height="70" viewBox="0 0 70 70" fill="none" xmlns="http://www.w3.org/2000/svg">
<path d="M34.9998 34.2708C36.4096 34.2708 37.6127 33.7726 38.6092 32.7761C39.6057 31.7795 40.104 30.5764 40.104 29.1667C40.104 27.757 39.6057 26.5538 38.6092 25.5573C37.6127 24.5608 36.4096 24.0625 34.9998 24.0625C33.5901 24.0625 32.387 24.5608 31.3905 25.5573C30.3939 26.5538 29.8957 27.757 29.8957 29.1667C29.8957 30.5764 30.3939 31.7795 31.3905 32.7761C32.387 33.7726 33.5901 34.2708 34.9998 34.2708ZM34.9998 64.1667C27.1734 57.507 21.328 51.3212 17.4634 45.6094C13.5988 39.8976 11.6665 34.6111 11.6665 29.75C11.6665 22.4583 14.012 16.6493 18.703 12.3229C23.3939 7.99654 28.8262 5.83334 34.9998 5.83334C41.1734 5.83334 46.6057 7.99654 51.2967 12.3229C55.9877 16.6493 58.3332 22.4583 58.3332 29.75C58.3332 34.6111 56.4009 39.8976 52.5363 45.6094C48.6717 51.3212 42.8262 57.507 34.9998 64.1667Z" fill="#EE2A7B"/>
</svg>
