<svg width="70" height="70" viewBox="0 0 70 70" fill="none" xmlns="http://www.w3.org/2000/svg">
<path d="M35 34.2708C36.4097 34.2708 37.6128 33.7726 38.6093 32.7761C39.6059 31.7795 40.1041 30.5764 40.1041 29.1667C40.1041 27.757 39.6059 26.5538 38.6093 25.5573C37.6128 24.5608 36.4097 24.0625 35 24.0625C33.5902 24.0625 32.3871 24.5608 31.3906 25.5573C30.3941 26.5538 29.8958 27.757 29.8958 29.1667C29.8958 30.5764 30.3941 31.7795 31.3906 32.7761C32.3871 33.7726 33.5902 34.2708 35 34.2708ZM35 58.4063C41.4652 52.5243 46.2413 47.1892 49.3281 42.4011C52.4149 37.6129 53.9583 33.3958 53.9583 29.75C53.9583 24.0139 52.1232 19.3229 48.4531 15.6771C44.7829 12.0313 40.2986 10.2083 35 10.2083C29.7013 10.2083 25.217 12.0313 21.5468 15.6771C17.8767 19.3229 16.0416 24.0139 16.0416 29.75C16.0416 33.3958 17.6215 37.6129 20.7812 42.4011C23.9409 47.1892 28.6805 52.5243 35 58.4063ZM35 64.1667C27.1736 57.507 21.3281 51.3212 17.4635 45.6094C13.5989 39.8976 11.6666 34.6111 11.6666 29.75C11.6666 22.4583 14.0121 16.6493 18.7031 12.3229C23.3941 7.99654 28.8263 5.83334 35 5.83334C41.1736 5.83334 46.6059 7.99654 51.2968 12.3229C55.9878 16.6493 58.3333 22.4583 58.3333 29.75C58.3333 34.6111 56.401 39.8976 52.5364 45.6094C48.6718 51.3212 42.8263 57.507 35 64.1667Z" fill="black"/>
</svg>
