<svg width="80" height="80" viewBox="0 0 80 80" fill="none" xmlns="http://www.w3.org/2000/svg">
<path d="M13.3333 63.3333V58.3333H20.3333V32.8333C20.3333 28.1666 21.7083 24.0138 24.4583 20.375C27.2083 16.7361 30.8333 14.4444 35.3333 13.5V11.0833C35.3333 9.80552 35.7917 8.74996 36.7083 7.91663C37.625 7.08329 38.7222 6.66663 40 6.66663C41.2778 6.66663 42.375 7.08329 43.2917 7.91663C44.2083 8.74996 44.6667 9.80552 44.6667 11.0833V13.5C49.1667 14.4444 52.8056 16.7361 55.5833 20.375C58.3611 24.0138 59.75 28.1666 59.75 32.8333V58.3333H66.6667V63.3333H13.3333ZM40 73.3333C38.2222 73.3333 36.6667 72.6805 35.3333 71.375C34 70.0694 33.3333 68.5 33.3333 66.6666H46.6667C46.6667 68.5 46.0139 70.0694 44.7083 71.375C43.4028 72.6805 41.8333 73.3333 40 73.3333ZM25.3333 58.3333H54.75V32.8333C54.75 28.7222 53.3333 25.2222 50.5 22.3333C47.6667 19.4444 44.1944 18 40.0833 18C35.9722 18 32.4861 19.4444 29.625 22.3333C26.7639 25.2222 25.3333 28.7222 25.3333 32.8333V58.3333Z" fill="#EE2A7B"/>
</svg>
