<svg width="80" height="80" viewBox="0 0 80 80" fill="none" xmlns="http://www.w3.org/2000/svg">
<path d="M6.66683 63.3333V58.25H73.3335V63.3333H6.66683ZM9.8335 42.1667L6.50016 40.3333L9.8335 34.6667H3.3335V30.9167H9.8335L6.50016 25.25L9.8335 23.4167L13.0002 29L16.1668 23.4167L19.5002 25.25L16.1668 30.9167H22.6668V34.6667H16.1668L19.5002 40.3333L16.1668 42.1667L13.0002 36.5833L9.8335 42.1667ZM36.8335 42.1667L33.5002 40.1667L36.8335 34.5H30.3335V30.75H36.8335L33.5002 25.0833L36.8335 23.25L40.0002 28.8333L43.1668 23.25L46.5002 25.0833L43.1668 30.75H49.6668V34.5H43.1668L46.5002 40.1667L43.1668 42.1667L40.0002 36.5833L36.8335 42.1667ZM63.8335 42.1667L60.5002 40.1667L63.8335 34.5H57.3335V30.75H63.8335L60.5002 25.0833L63.8335 23.25L67.0002 28.8333L70.1668 23.25L73.5002 25.0833L70.1668 30.75H76.6668V34.5H70.1668L73.5002 40.1667L70.1668 42.1667L67.0002 36.5833L63.8335 42.1667Z" fill="#EE2A7B"/>
</svg>
