<svg width="80" height="80" viewBox="0 0 80 80" fill="none" xmlns="http://www.w3.org/2000/svg">
<path d="M40.0002 47.1667C42.0557 47.1667 43.8057 46.4584 45.2502 45.0417C46.6946 43.6251 47.4168 41.8612 47.4168 39.7501C47.4168 37.6945 46.6946 35.9445 45.2502 34.5001C43.8057 33.0556 42.0557 32.3334 40.0002 32.3334C37.9446 32.3334 36.1946 33.0556 34.7502 34.5001C33.3057 35.9445 32.5835 37.6945 32.5835 39.7501C32.5835 41.8612 33.3057 43.6251 34.7502 45.0417C36.1946 46.4584 37.9446 47.1667 40.0002 47.1667ZM40.0002 68.1667C42.6113 67.2779 45.2779 65.8751 48.0002 63.9584C50.7224 62.0417 52.9168 59.8612 54.5835 57.4167L46.9168 50.0834C45.8613 50.6945 44.7502 51.1945 43.5835 51.5834C42.4168 51.9723 41.2224 52.1667 40.0002 52.1667C36.5557 52.1667 33.6252 50.9723 31.2085 48.5834C28.7918 46.1945 27.5835 43.2501 27.5835 39.7501C27.5835 36.3056 28.7918 33.3751 31.2085 30.9584C33.6252 28.5417 36.5557 27.3334 40.0002 27.3334C43.4446 27.3334 46.3752 28.5417 48.7918 30.9584C51.2085 33.3751 52.4168 36.3334 52.4168 39.8334C52.4168 41.0001 52.2502 42.1667 51.9168 43.3334C51.5835 44.5001 51.0557 45.5556 50.3335 46.5001L57.3335 53.1667C58.6668 50.7779 59.7224 48.1529 60.5002 45.2917C61.2779 42.4306 61.6668 39.5001 61.6668 36.5001V20.0001L40.0002 12.0834L18.3335 20.0001V36.5001C18.3335 43.7779 20.3474 50.3473 24.3752 56.2084C28.4029 62.0695 33.6113 66.0556 40.0002 68.1667ZM40.0002 73.3334C32.2224 71.389 25.8335 66.8751 20.8335 59.7917C15.8335 52.7084 13.3335 44.9445 13.3335 36.5001V16.6667L40.0002 6.66675L66.6668 16.6667V36.5001C66.6668 44.9445 64.1668 52.7084 59.1668 59.7917C54.1668 66.8751 47.7779 71.389 40.0002 73.3334Z" fill="#EE2A7B"/>
</svg>
