<svg width="70" height="70" viewBox="0 0 70 70" fill="none" xmlns="http://www.w3.org/2000/svg">
<path d="M16.4792 58.3333C15.1181 58.3333 13.9757 57.8715 13.0521 56.9479C12.1285 56.0243 11.6667 54.8819 11.6667 53.5208C11.6667 52.1597 12.1285 51.0173 13.0521 50.0937C13.9757 49.1701 15.1181 48.7083 16.4792 48.7083C17.8403 48.7083 18.9827 49.1701 19.9063 50.0937C20.8299 51.0173 21.2917 52.1597 21.2917 53.5208C21.2917 54.8819 20.8299 56.0243 19.9063 56.9479C18.9827 57.8715 17.8403 58.3333 16.4792 58.3333ZM35 58.3333C33.6389 58.3333 32.4965 57.8715 31.5729 56.9479C30.6493 56.0243 30.1875 54.8819 30.1875 53.5208C30.1875 52.1597 30.6493 51.0173 31.5729 50.0937C32.4965 49.1701 33.6389 48.7083 35 48.7083C36.3611 48.7083 37.5035 49.1701 38.4271 50.0937C39.3507 51.0173 39.8125 52.1597 39.8125 53.5208C39.8125 54.8819 39.3507 56.0243 38.4271 56.9479C37.5035 57.8715 36.3611 58.3333 35 58.3333ZM53.5209 58.3333C52.1597 58.3333 51.0174 57.8715 50.0938 56.9479C49.1702 56.0243 48.7084 54.8819 48.7084 53.5208C48.7084 52.1597 49.1702 51.0173 50.0938 50.0937C51.0174 49.1701 52.1597 48.7083 53.5209 48.7083C54.882 48.7083 56.0243 49.1701 56.9479 50.0937C57.8715 51.0173 58.3334 52.1597 58.3334 53.5208C58.3334 54.8819 57.8715 56.0243 56.9479 56.9479C56.0243 57.8715 54.882 58.3333 53.5209 58.3333ZM16.4792 39.8125C15.1181 39.8125 13.9757 39.3507 13.0521 38.427C12.1285 37.5034 11.6667 36.3611 11.6667 35C11.6667 33.6388 12.1285 32.4965 13.0521 31.5729C13.9757 30.6493 15.1181 30.1875 16.4792 30.1875C17.8403 30.1875 18.9827 30.6493 19.9063 31.5729C20.8299 32.4965 21.2917 33.6388 21.2917 35C21.2917 36.3611 20.8299 37.5034 19.9063 38.427C18.9827 39.3507 17.8403 39.8125 16.4792 39.8125ZM35 39.8125C33.6389 39.8125 32.4965 39.3507 31.5729 38.427C30.6493 37.5034 30.1875 36.3611 30.1875 35C30.1875 33.6388 30.6493 32.4965 31.5729 31.5729C32.4965 30.6493 33.6389 30.1875 35 30.1875C36.3611 30.1875 37.5035 30.6493 38.4271 31.5729C39.3507 32.4965 39.8125 33.6388 39.8125 35C39.8125 36.3611 39.3507 37.5034 38.4271 38.427C37.5035 39.3507 36.3611 39.8125 35 39.8125ZM53.5209 39.8125C52.1597 39.8125 51.0174 39.3507 50.0938 38.427C49.1702 37.5034 48.7084 36.3611 48.7084 35C48.7084 33.6388 49.1702 32.4965 50.0938 31.5729C51.0174 30.6493 52.1597 30.1875 53.5209 30.1875C54.882 30.1875 56.0243 30.6493 56.9479 31.5729C57.8715 32.4965 58.3334 33.6388 58.3334 35C58.3334 36.3611 57.8715 37.5034 56.9479 38.427C56.0243 39.3507 54.882 39.8125 53.5209 39.8125ZM16.4792 21.2916C15.1181 21.2916 13.9757 20.8298 13.0521 19.9062C12.1285 18.9826 11.6667 17.8402 11.6667 16.4791C11.6667 15.118 12.1285 13.9757 13.0521 13.052C13.9757 12.1284 15.1181 11.6666 16.4792 11.6666C17.8403 11.6666 18.9827 12.1284 19.9063 13.052C20.8299 13.9757 21.2917 15.118 21.2917 16.4791C21.2917 17.8402 20.8299 18.9826 19.9063 19.9062C18.9827 20.8298 17.8403 21.2916 16.4792 21.2916ZM35 21.2916C33.6389 21.2916 32.4965 20.8298 31.5729 19.9062C30.6493 18.9826 30.1875 17.8402 30.1875 16.4791C30.1875 15.118 30.6493 13.9757 31.5729 13.052C32.4965 12.1284 33.6389 11.6666 35 11.6666C36.3611 11.6666 37.5035 12.1284 38.4271 13.052C39.3507 13.9757 39.8125 15.118 39.8125 16.4791C39.8125 17.8402 39.3507 18.9826 38.4271 19.9062C37.5035 20.8298 36.3611 21.2916 35 21.2916ZM53.5209 21.2916C52.1597 21.2916 51.0174 20.8298 50.0938 19.9062C49.1702 18.9826 48.7084 17.8402 48.7084 16.4791C48.7084 15.118 49.1702 13.9757 50.0938 13.052C51.0174 12.1284 52.1597 11.6666 53.5209 11.6666C54.882 11.6666 56.0243 12.1284 56.9479 13.052C57.8715 13.9757 58.3334 15.118 58.3334 16.4791C58.3334 17.8402 57.8715 18.9826 56.9479 19.9062C56.0243 20.8298 54.882 21.2916 53.5209 21.2916Z" fill="black"/>
</svg>
