<svg width="80" height="80" viewBox="0 0 80 80" fill="none" xmlns="http://www.w3.org/2000/svg">
<path d="M32.3333 73.3334L30.6667 62.8334C29.6111 62.4445 28.5 61.9167 27.3333 61.2501C26.1667 60.5834 25.1389 59.889 24.25 59.1667L14.4167 63.6667L6.66666 50.0001L15.6667 43.4167C15.5556 42.9167 15.4861 42.3473 15.4583 41.7084C15.4306 41.0695 15.4167 40.5001 15.4167 40.0001C15.4167 39.5001 15.4306 38.9306 15.4583 38.2917C15.4861 37.6529 15.5556 37.0834 15.6667 36.5834L6.66666 30.0001L14.4167 16.3334L24.25 20.8334C25.1389 20.1112 26.1667 19.4167 27.3333 18.7501C28.5 18.0834 29.6111 17.5834 30.6667 17.2501L32.3333 6.66675H47.6667L49.3333 17.1667C50.3889 17.5556 51.5139 18.0695 52.7083 18.7084C53.9028 19.3473 54.9167 20.0556 55.75 20.8334L65.5833 16.3334L73.3333 30.0001L64.3333 36.4167C64.4444 36.9723 64.5139 37.5695 64.5417 38.2084C64.5694 38.8473 64.5833 39.4445 64.5833 40.0001C64.5833 40.5556 64.5694 41.139 64.5417 41.7501C64.5139 42.3612 64.4444 42.9445 64.3333 43.5001L73.3333 50.0001L65.5833 63.6667L55.75 59.1667C54.8611 59.889 53.8472 60.5973 52.7083 61.2917C51.5694 61.9862 50.4444 62.5001 49.3333 62.8334L47.6667 73.3334H32.3333ZM40 50.8334C43 50.8334 45.5556 49.7779 47.6667 47.6667C49.7778 45.5556 50.8333 43.0001 50.8333 40.0001C50.8333 37.0001 49.7778 34.4445 47.6667 32.3334C45.5556 30.2223 43 29.1667 40 29.1667C37 29.1667 34.4444 30.2223 32.3333 32.3334C30.2222 34.4445 29.1667 37.0001 29.1667 40.0001C29.1667 43.0001 30.2222 45.5556 32.3333 47.6667C34.4444 49.7779 37 50.8334 40 50.8334ZM40 45.8334C38.3889 45.8334 37.0139 45.264 35.875 44.1251C34.7361 42.9862 34.1667 41.6112 34.1667 40.0001C34.1667 38.389 34.7361 37.014 35.875 35.8751C37.0139 34.7362 38.3889 34.1667 40 34.1667C41.6111 34.1667 42.9861 34.7362 44.125 35.8751C45.2639 37.014 45.8333 38.389 45.8333 40.0001C45.8333 41.6112 45.2639 42.9862 44.125 44.1251C42.9861 45.264 41.6111 45.8334 40 45.8334ZM36.3333 68.3334H43.6667L44.8333 59.0001C46.6667 58.5556 48.4028 57.8612 50.0417 56.9167C51.6805 55.9723 53.1667 54.8334 54.5 53.5001L63.3333 57.3334L66.6667 51.3334L58.8333 45.5834C59.0555 44.639 59.2361 43.7084 59.375 42.7917C59.5139 41.8751 59.5833 40.9445 59.5833 40.0001C59.5833 39.0556 59.5278 38.1251 59.4167 37.2084C59.3056 36.2917 59.1111 35.3612 58.8333 34.4167L66.6667 28.6667L63.3333 22.6667L54.5 26.5001C53.2222 25.0556 51.7778 23.8473 50.1667 22.8751C48.5556 21.9029 46.7778 21.2779 44.8333 21.0001L43.6667 11.6667H36.3333L35.1667 21.0001C33.2778 21.389 31.5139 22.0556 29.875 23.0001C28.2361 23.9445 26.7778 25.1112 25.5 26.5001L16.6667 22.6667L13.3333 28.6667L21.1667 34.4167C20.9444 35.3612 20.7639 36.2917 20.625 37.2084C20.4861 38.1251 20.4167 39.0556 20.4167 40.0001C20.4167 40.9445 20.4861 41.8751 20.625 42.7917C20.7639 43.7084 20.9444 44.639 21.1667 45.5834L13.3333 51.3334L16.6667 57.3334L25.5 53.5001C26.8333 54.8334 28.3194 55.9723 29.9583 56.9167C31.5972 57.8612 33.3333 58.5556 35.1667 59.0001L36.3333 68.3334Z" fill="#EE2A7B"/>
</svg>
