<svg width="40" height="40" viewBox="0 0 40 40" fill="none" xmlns="http://www.w3.org/2000/svg">
<g filter="url(#filter0_b_1192_538)">
<rect width="40" height="40" rx="20" fill="white"/>
<path d="M26.175 30C25.3917 30 24.7208 29.7208 24.1625 29.1625C23.6042 28.6042 23.325 27.9333 23.325 27.15C23.325 27.0333 23.3375 26.8958 23.3625 26.7375C23.3875 26.5792 23.425 26.4333 23.475 26.3L15.9 21.9C15.65 22.1833 15.3417 22.4125 14.975 22.5875C14.6083 22.7625 14.2333 22.85 13.85 22.85C13.0667 22.85 12.3958 22.5708 11.8375 22.0125C11.2792 21.4542 11 20.7833 11 20C11 19.2 11.2792 18.525 11.8375 17.975C12.3958 17.425 13.0667 17.15 13.85 17.15C14.2333 17.15 14.6 17.225 14.95 17.375C15.3 17.525 15.6167 17.7417 15.9 18.025L23.475 13.675C23.425 13.5583 23.3875 13.425 23.3625 13.275C23.3375 13.125 23.325 12.9833 23.325 12.85C23.325 12.05 23.6042 11.375 24.1625 10.825C24.7208 10.275 25.3917 10 26.175 10C26.975 10 27.65 10.275 28.2 10.825C28.75 11.375 29.025 12.05 29.025 12.85C29.025 13.6333 28.75 14.3042 28.2 14.8625C27.65 15.4208 26.975 15.7 26.175 15.7C25.7917 15.7 25.4208 15.6375 25.0625 15.5125C24.7042 15.3875 24.4 15.1833 24.15 14.9L16.575 19.1C16.6083 19.2333 16.6375 19.3875 16.6625 19.5625C16.6875 19.7375 16.7 19.8833 16.7 20C16.7 20.1167 16.6875 20.2417 16.6625 20.375C16.6375 20.5083 16.6083 20.6417 16.575 20.775L24.15 25.075C24.4 24.8417 24.6917 24.6542 25.025 24.5125C25.3583 24.3708 25.7417 24.3 26.175 24.3C26.975 24.3 27.65 24.575 28.2 25.125C28.75 25.675 29.025 26.35 29.025 27.15C29.025 27.9333 28.75 28.6042 28.2 29.1625C27.65 29.7208 26.975 30 26.175 30ZM26.175 14.2C26.5583 14.2 26.8792 14.0708 27.1375 13.8125C27.3958 13.5542 27.525 13.2333 27.525 12.85C27.525 12.4667 27.3958 12.1458 27.1375 11.8875C26.8792 11.6292 26.5583 11.5 26.175 11.5C25.7917 11.5 25.4708 11.6292 25.2125 11.8875C24.9542 12.1458 24.825 12.4667 24.825 12.85C24.825 13.2333 24.9542 13.5542 25.2125 13.8125C25.4708 14.0708 25.7917 14.2 26.175 14.2ZM13.85 21.35C14.2333 21.35 14.5542 21.2208 14.8125 20.9625C15.0708 20.7042 15.2 20.3833 15.2 20C15.2 19.6167 15.0708 19.2958 14.8125 19.0375C14.5542 18.7792 14.2333 18.65 13.85 18.65C13.4667 18.65 13.1458 18.7792 12.8875 19.0375C12.6292 19.2958 12.5 19.6167 12.5 20C12.5 20.3833 12.6292 20.7042 12.8875 20.9625C13.1458 21.2208 13.4667 21.35 13.85 21.35ZM26.175 28.5C26.5583 28.5 26.8792 28.3708 27.1375 28.1125C27.3958 27.8542 27.525 27.5333 27.525 27.15C27.525 26.7667 27.3958 26.4458 27.1375 26.1875C26.8792 25.9292 26.5583 25.8 26.175 25.8C25.7917 25.8 25.4708 25.9292 25.2125 26.1875C24.9542 26.4458 24.825 26.7667 24.825 27.15C24.825 27.5333 24.9542 27.8542 25.2125 28.1125C25.4708 28.3708 25.7917 28.5 26.175 28.5Z" fill="#EE2A7B"/>
</g>
<defs>
<filter id="filter0_b_1192_538" x="-10" y="-10" width="60" height="60" filterUnits="userSpaceOnUse" color-interpolation-filters="sRGB">
<feFlood flood-opacity="0" result="BackgroundImageFix"/>
<feGaussianBlur in="BackgroundImageFix" stdDeviation="5"/>
<feComposite in2="SourceAlpha" operator="in" result="effect1_backgroundBlur_1192_538"/>
<feBlend mode="normal" in="SourceGraphic" in2="effect1_backgroundBlur_1192_538" result="shape"/>
</filter>
</defs>
</svg>
