<svg width="61" height="68" viewBox="0 0 61 68" fill="none" xmlns="http://www.w3.org/2000/svg">
<path d="M50.5833 67.3334C47.9722 67.3334 45.7361 66.4029 43.875 64.5417C42.0139 62.6806 41.0833 60.4445 41.0833 57.8334C41.0833 57.4445 41.125 56.9862 41.2083 56.4584C41.2917 55.9306 41.4167 55.4445 41.5833 55.0001L16.3333 40.3334C15.5 41.2779 14.4722 42.0417 13.25 42.6251C12.0278 43.2084 10.7778 43.5001 9.5 43.5001C6.88889 43.5001 4.65278 42.5695 2.79167 40.7084C0.930556 38.8473 0 36.6112 0 34.0001C0 31.3334 0.930556 29.0834 2.79167 27.2501C4.65278 25.4167 6.88889 24.5001 9.5 24.5001C10.7778 24.5001 12 24.7501 13.1667 25.2501C14.3333 25.7501 15.3889 26.4723 16.3333 27.4167L41.5833 12.9167C41.4167 12.5279 41.2917 12.0834 41.2083 11.5834C41.125 11.0834 41.0833 10.6112 41.0833 10.1667C41.0833 7.50008 42.0139 5.25008 43.875 3.41675C45.7361 1.58341 47.9722 0.666748 50.5833 0.666748C53.25 0.666748 55.5 1.58341 57.3333 3.41675C59.1667 5.25008 60.0833 7.50008 60.0833 10.1667C60.0833 12.7779 59.1667 15.014 57.3333 16.8751C55.5 18.7362 53.25 19.6667 50.5833 19.6667C49.3056 19.6667 48.0694 19.4584 46.875 19.0417C45.6806 18.6251 44.6667 17.9445 43.8333 17.0001L18.5833 31.0001C18.6944 31.4445 18.7917 31.9584 18.875 32.5417C18.9583 33.1251 19 33.6112 19 34.0001C19 34.389 18.9583 34.8056 18.875 35.2501C18.7917 35.6945 18.6944 36.139 18.5833 36.5834L43.8333 50.9167C44.6667 50.139 45.6389 49.514 46.75 49.0417C47.8611 48.5695 49.1389 48.3334 50.5833 48.3334C53.25 48.3334 55.5 49.2501 57.3333 51.0834C59.1667 52.9167 60.0833 55.1667 60.0833 57.8334C60.0833 60.4445 59.1667 62.6806 57.3333 64.5417C55.5 66.4029 53.25 67.3334 50.5833 67.3334ZM50.5833 14.6667C51.8611 14.6667 52.9306 14.2362 53.7917 13.3751C54.6528 12.514 55.0833 11.4445 55.0833 10.1667C55.0833 8.88897 54.6528 7.81953 53.7917 6.95841C52.9306 6.0973 51.8611 5.66675 50.5833 5.66675C49.3056 5.66675 48.2361 6.0973 47.375 6.95841C46.5139 7.81953 46.0833 8.88897 46.0833 10.1667C46.0833 11.4445 46.5139 12.514 47.375 13.3751C48.2361 14.2362 49.3056 14.6667 50.5833 14.6667ZM9.5 38.5001C10.7778 38.5001 11.8472 38.0695 12.7083 37.2084C13.5694 36.3473 14 35.2779 14 34.0001C14 32.7223 13.5694 31.6529 12.7083 30.7917C11.8472 29.9306 10.7778 29.5001 9.5 29.5001C8.22222 29.5001 7.15278 29.9306 6.29167 30.7917C5.43055 31.6529 5 32.7223 5 34.0001C5 35.2779 5.43055 36.3473 6.29167 37.2084C7.15278 38.0695 8.22222 38.5001 9.5 38.5001ZM50.5833 62.3334C51.8611 62.3334 52.9306 61.9029 53.7917 61.0417C54.6528 60.1806 55.0833 59.1112 55.0833 57.8334C55.0833 56.5556 54.6528 55.4862 53.7917 54.6251C52.9306 53.764 51.8611 53.3334 50.5833 53.3334C49.3056 53.3334 48.2361 53.764 47.375 54.6251C46.5139 55.4862 46.0833 56.5556 46.0833 57.8334C46.0833 59.1112 46.5139 60.1806 47.375 61.0417C48.2361 61.9029 49.3056 62.3334 50.5833 62.3334Z" fill="#EE2A7B"/>
</svg>
