<svg width="80" height="80" viewBox="0 0 80 80" fill="none" xmlns="http://www.w3.org/2000/svg">
<path d="M26.6667 60.0001L40 49.8334L53.3333 60.0001L48 43.5834L61.3333 34.1667H45.0833L40 17.2501L34.8333 34.1667H18.5833L31.9167 43.5834L26.6667 60.0001ZM40 73.3334C35.4444 73.3334 31.1389 72.4584 27.0833 70.7084C23.0278 68.9584 19.4861 66.5695 16.4583 63.5417C13.4306 60.514 11.0417 56.9723 9.29166 52.9167C7.54166 48.8612 6.66666 44.5556 6.66666 40.0001C6.66666 35.389 7.54166 31.0556 9.29166 27.0001C11.0417 22.9445 13.4306 19.4167 16.4583 16.4167C19.4861 13.4167 23.0278 11.0417 27.0833 9.29175C31.1389 7.54175 35.4444 6.66675 40 6.66675C44.6111 6.66675 48.9444 7.54175 53 9.29175C57.0555 11.0417 60.5833 13.4167 63.5833 16.4167C66.5833 19.4167 68.9583 22.9445 70.7083 27.0001C72.4583 31.0556 73.3333 35.389 73.3333 40.0001C73.3333 44.5556 72.4583 48.8612 70.7083 52.9167C68.9583 56.9723 66.5833 60.514 63.5833 63.5417C60.5833 66.5695 57.0555 68.9584 53 70.7084C48.9444 72.4584 44.6111 73.3334 40 73.3334ZM40 68.3334C47.8889 68.3334 54.5833 65.5695 60.0833 60.0417C65.5833 54.514 68.3333 47.8334 68.3333 40.0001C68.3333 32.1112 65.5833 25.4167 60.0833 19.9167C54.5833 14.4167 47.8889 11.6667 40 11.6667C32.1667 11.6667 25.4861 14.4167 19.9583 19.9167C14.4306 25.4167 11.6667 32.1112 11.6667 40.0001C11.6667 47.8334 14.4306 54.514 19.9583 60.0417C25.4861 65.5695 32.1667 68.3334 40 68.3334Z" fill="#EE2A7B"/>
</svg>
