<svg width="40" height="37" viewBox="0 0 40 37" fill="none" xmlns="http://www.w3.org/2000/svg">
<path d="M20 36.95L17.95 35.1C14.4167 31.8667 11.5 29.075 9.2 26.725C6.9 24.375 5.06667 22.275 3.7 20.425C2.33333 18.575 1.375 16.9 0.825 15.4C0.275 13.9 0 12.3833 0 10.85C0 7.84999 1.00833 5.34165 3.025 3.32499C5.04167 1.30832 7.53333 0.299988 10.5 0.299988C12.4 0.299988 14.1583 0.749988 15.775 1.64999C17.3917 2.54999 18.8 3.84999 20 5.54999C21.4 3.74999 22.8833 2.42499 24.45 1.57499C26.0167 0.724987 27.7 0.299988 29.5 0.299988C32.4667 0.299988 34.9583 1.30832 36.975 3.32499C38.9917 5.34165 40 7.84999 40 10.85C40 12.3833 39.725 13.9 39.175 15.4C38.625 16.9 37.6667 18.575 36.3 20.425C34.9333 22.275 33.1 24.375 30.8 26.725C28.5 29.075 25.5833 31.8667 22.05 35.1L20 36.95ZM20 33C23.3667 29.9 26.1417 27.2417 28.325 25.025C30.5083 22.8083 32.2417 20.8667 33.525 19.2C34.8083 17.5333 35.7083 16.05 36.225 14.75C36.7417 13.45 37 12.15 37 10.85C37 8.64999 36.3 6.84165 34.9 5.42499C33.5 4.00832 31.7 3.29999 29.5 3.29999C27.8 3.29999 26.2167 3.82499 24.75 4.87499C23.2833 5.92499 22.1 7.39999 21.2 9.29999H18.75C17.8833 7.43332 16.7167 5.96665 15.25 4.89999C13.7833 3.83332 12.2 3.29999 10.5 3.29999C8.3 3.29999 6.5 4.00832 5.1 5.42499C3.7 6.84165 3 8.64999 3 10.85C3 12.15 3.25833 13.4583 3.775 14.775C4.29167 16.0917 5.19167 17.5917 6.475 19.275C7.75833 20.9583 9.5 22.9 11.7 25.1C13.9 27.3 16.6667 29.9333 20 33Z" fill="black"/>
</svg>
