<svg width="60" height="60" viewBox="0 0 60 60" fill="none" xmlns="http://www.w3.org/2000/svg">
<path d="M11.0722 47.6777C8.3911 44.9966 7.02108 41.7851 6.96216 38.0433C6.90323 34.3016 8.21432 31.0901 10.8954 28.409L29.8989 9.40551C31.7845 7.51989 34.0605 6.58445 36.7269 6.59918C39.3933 6.61391 41.6693 7.56409 43.5549 9.44971C45.47 11.3648 46.4276 13.6482 46.4276 16.2998C46.4276 18.9515 45.47 21.2348 43.5549 23.1499L26.1424 40.5624C25.0228 41.682 23.6897 42.2491 22.1429 42.2639C20.5961 42.2786 19.2629 41.7262 18.1433 40.6066C17.0237 39.487 16.5007 38.1244 16.5744 36.5186C16.648 34.9129 17.2594 33.5355 18.4084 32.3865L35.7326 15.0624L37.5003 16.8301L20.0436 34.2868C19.3954 34.935 19.0566 35.701 19.0272 36.5849C18.9977 37.4688 19.2923 38.2201 19.911 38.8388C20.5298 39.4576 21.2737 39.7595 22.1429 39.7448C23.012 39.7301 23.7559 39.4134 24.3747 38.7946L41.8314 21.3379C43.2456 19.9237 43.9453 18.237 43.9306 16.2777C43.9159 14.3184 43.2014 12.6317 41.7872 11.2175C40.373 9.80326 38.6862 9.08879 36.7269 9.07406C34.7677 9.05932 33.0809 9.75907 31.6667 11.1733L12.5748 30.2652C10.424 32.4159 9.38547 35.016 9.45913 38.0654C9.53279 41.1148 10.6597 43.7297 12.84 45.9099C15.0497 48.1196 17.6792 49.2466 20.7286 49.2908C23.778 49.3349 26.3929 48.2669 28.5731 46.0867L47.665 26.9948L49.4328 28.7626L30.3851 47.8102C27.704 50.4914 24.4851 51.8098 20.7286 51.7656C16.9721 51.7214 13.7533 50.3588 11.0722 47.6777Z" fill="black"/>
</svg>
