<svg width="65" height="65" viewBox="0 0 65 65" fill="none" xmlns="http://www.w3.org/2000/svg">
<rect width="65" height="65" rx="32.5" fill="black" fill-opacity="0.6"/>
<path d="M19.375 45.625V37.2396H21.5625V41.8698L26.9583 36.474L28.526 38.0417L23.1302 43.4375H27.7604V45.625H19.375ZM37.2396 45.625V43.4375H41.8698L36.5104 38.0781L38.0781 36.5104L43.4375 41.8698V37.2396H45.625V45.625H37.2396ZM26.9219 28.4896L21.5625 23.1302V27.7604H19.375V19.375H27.7604V21.5625H23.1302L28.4896 26.9219L26.9219 28.4896ZM38.0781 28.4896L36.5104 26.9219L41.8698 21.5625H37.2396V19.375H45.625V27.7604H43.4375V23.1302L38.0781 28.4896Z" fill="white"/>
</svg>
